<?xml version="1.0" encoding="utf-8"?>
<!-- Generator: Adobe Illustrator 25.3.1, SVG Export Plug-In . SVG Version: 6.00 Build 0)  -->
<svg version="1.1" id="Layer_1" xmlns="http://www.w3.org/2000/svg" xmlns:xlink="http://www.w3.org/1999/xlink" x="0px" y="0px"
	 viewBox="0 0 1000 1000" style="enable-background:new 0 0 1000 1000;" xml:space="preserve">
<style type="text/css">
	.st0{fill:#FFFFFF;}
	.st1{fill-rule:evenodd;clip-rule:evenodd;}
</style>
<rect x="381" y="695.9" transform="matrix(0.7071 0.7071 -0.7071 0.7071 695.1652 -115.4972)" class="st0" width="212" height="171"/>
<path class="st0" d="M500.3,266.2c15.8-26.9,35.5-49.2,59.8-67.9c90.1-69.3,229.5-62.5,310.7,16c64.5,62.3,80.4,136.4,55.4,219
	c-19.3,63.9-56,119.1-100.6,169.7c-72.2,81.9-160,146.5-254.8,203.2c-21,12.6-42.5,24.5-64,36.2c-3.2,1.7-9,2.2-12,0.6
	c-109-58.7-210.9-126.4-296.3-214.1c-51.2-52.6-93.6-110.7-118.9-178.7c-21-56.4-25-113.1,1.3-168.8
	c34.2-72.3,93.9-116.6,176.7-127.6c104.2-13.7,185,23.6,240,109.1C498.2,263.7,498.8,264.3,500.3,266.2L500.3,266.2z"/>
<path class="st1" d="M499.6,900.6C294.5,698.9,98.9,525.6,98.9,376C98.9,237.9,210.7,187,291.3,187c47.8,0,151.2,18.2,208.3,162.3
	c57.9-144.5,162.6-162,208.6-162c92.5,0,192.1,59,192.1,188.7C900.3,524.3,713.2,690.2,499.6,900.6 M708.2,150.9
	c-80.2,0-161.9,38-208.6,117.9c-46.8-80.4-128.3-118.3-208.3-118.3c-115.9,0-228.8,79.7-228.8,225.5
	c0,169.8,202.9,343.5,437.1,575.9C733.8,719.5,936.7,545.8,936.7,376C936.7,229.9,824,150.9,708.2,150.9"/>
</svg>
