<?xml version="1.0" encoding="utf-8"?>
<!-- Generator: Adobe Illustrator 25.3.1, SVG Export Plug-In . SVG Version: 6.00 Build 0)  -->
<svg version="1.1" id="Layer_1" xmlns="http://www.w3.org/2000/svg" xmlns:xlink="http://www.w3.org/1999/xlink" x="0px" y="0px"
	 viewBox="0 0 1000 1000" style="enable-background:new 0 0 1000 1000;" xml:space="preserve">
<style type="text/css">
	.st0{fill:#0090E3;}
	.st1{fill-rule:evenodd;clip-rule:evenodd;fill:#0090E3;}
</style>
<rect x="401.5" y="675.4" transform="matrix(0.7071 -0.7071 0.7071 0.7071 -409.8875 573.2208)" class="st0" width="171" height="212"/>
<path class="st0" d="M500.3,270.4c15.8-27.9,35.5-51,59.8-70.3c90.1-71.8,229.5-64.7,310.7,16.6c64.5,64.5,80.4,141.3,55.4,226.9
	c-19.3,66.2-56,123.4-100.6,175.8c-72.2,84.8-160,151.8-254.8,210.5c-21,13.1-42.5,25.4-64,37.5c-3.2,1.8-9,2.3-12,0.6
	c-109-60.8-210.9-130.9-296.3-221.8C147.3,591.6,104.9,531.4,79.6,461c-21-58.4-25-117.2,1.3-174.9
	c34.2-74.9,93.9-120.8,176.7-132.2c104.2-14.2,185,24.4,240,113C498.2,267.8,498.8,268.4,500.3,270.4L500.3,270.4z"/>
<path class="st1" d="M499.6,900.6C294.5,698.9,98.9,525.6,98.9,376c0-138.1,111.8-189,192.4-189c47.8,0,151.2,18.2,208.3,162.3
	c57.9-144.5,162.6-162,208.6-162c92.5,0,192.1,59,192.1,188.7C900.3,524.3,713.2,690.2,499.6,900.6 M708.2,150.9
	c-80.2,0-161.9,38-208.6,117.9c-46.8-80.4-128.3-118.3-208.3-118.3c-115.9,0-228.8,79.7-228.8,225.5
	c0,169.8,202.9,343.5,437.1,575.9C733.8,719.5,936.7,545.8,936.7,376C936.7,229.9,824,150.9,708.2,150.9"/>
</svg>
